<svg xmlns="http://www.w3.org/2000/svg" xmlns:xlink="http://www.w3.org/1999/xlink" width="210" zoomAndPan="magnify" viewBox="0 0 157.5 44.999999" height="60" preserveAspectRatio="xMidYMid meet" version="1.0"><defs><clipPath id="3bf4baeecc"><path d="M 19.355469 2.953125 L 40.878906 2.953125 L 40.878906 35.492188 L 19.355469 35.492188 Z M 19.355469 2.953125" clip-rule="nonzero"></path></clipPath><clipPath id="3090d6477a"><path d="M 29.636719 31.386719 C 33.402344 31.386719 35.957031 28.925781 35.957031 25.347656 C 35.957031 21.675781 33.402344 19.167969 29.636719 19.167969 L 25.113281 19.167969 C 24.601562 19.167969 24.1875 19.582031 24.1875 20.09375 L 24.1875 30.464844 C 24.1875 30.972656 24.601562 31.386719 25.113281 31.386719 Z M 30.195312 15.078125 C 32.75 15.078125 34.46875 13.453125 34.46875 11.082031 C 34.46875 8.667969 32.75 7.042969 30.195312 7.042969 L 25.113281 7.042969 C 24.601562 7.042969 24.1875 7.457031 24.1875 7.964844 L 24.1875 14.15625 C 24.1875 14.667969 24.601562 15.082031 25.113281 15.082031 Z M 19.355469 35.476562 L 19.355469 2.953125 L 29.40625 2.953125 C 36.375 2.953125 39.300781 6.625 39.300781 10.804688 C 39.300781 13.035156 38.417969 14.613281 36.882812 15.730469 C 36.417969 16.054688 36.09375 16.425781 36.09375 16.847656 C 36.09375 17.265625 36.417969 17.636719 36.882812 17.914062 C 39.625 19.496094 40.878906 22.050781 40.878906 25.347656 C 40.878906 30.96875 37.347656 35.476562 28.753906 35.476562 Z M 19.355469 35.476562" clip-rule="nonzero"></path></clipPath><clipPath id="bec95a5cf4"><path d="M 43.109375 11.78125 L 62.621094 11.78125 L 62.621094 36.097656 L 43.109375 36.097656 Z M 43.109375 11.78125" clip-rule="nonzero"></path></clipPath><clipPath id="93d7d40c60"><path d="M 58.765625 21.050781 C 58.765625 17.6875 55.847656 14.953125 52.371094 15.492188 C 49.972656 15.859375 48.050781 17.78125 47.683594 20.179688 C 47.144531 23.65625 49.5625 23.855469 53.242188 23.855469 C 56.636719 23.855469 58.765625 24.074219 58.761719 21.050781 M 62.621094 20.933594 C 62.621094 24.09375 61.179688 26.136719 58.859375 28.132812 C 57.742188 29.0625 56.8125 29.851562 56.8125 31.015625 C 56.8125 32.78125 58.902344 33.292969 58.902344 34.683594 C 58.902344 35.519531 58.160156 36.03125 56.117188 36.03125 C 49.613281 36.035156 43.109375 30.875 43.109375 22.652344 C 43.109375 15.777344 47.753906 11.78125 53.285156 11.78125 C 58.8125 11.78125 62.621094 15.777344 62.621094 20.933594" clip-rule="nonzero"></path></clipPath><clipPath id="77011873e3"><path d="M 65.164062 2.953125 L 88.625 2.953125 L 88.625 36.105469 L 65.164062 36.105469 Z M 65.164062 2.953125" clip-rule="nonzero"></path></clipPath><clipPath id="c43bc64fbe"><path d="M 77.289062 32.222656 C 81.425781 32.222656 83.980469 28.785156 83.980469 23.90625 C 83.980469 19.03125 81.425781 15.589844 77.289062 15.589844 C 72.734375 15.589844 69.390625 19.867188 69.390625 23.90625 C 69.390625 27.949219 72.734375 32.222656 77.289062 32.222656 M 65.164062 35.476562 L 65.164062 2.953125 L 69.621094 2.953125 L 69.621094 13.082031 C 69.621094 13.871094 69.949219 14.195312 70.414062 14.195312 C 71.667969 14.195312 73.109375 11.78125 77.566406 11.78125 C 83.980469 11.78125 88.625 16.796875 88.625 23.90625 C 88.625 31.015625 83.980469 36.03125 77.566406 36.03125 C 73.0625 36.03125 71.574219 33.523438 70.414062 33.523438 C 69.996094 33.523438 69.621094 33.847656 69.621094 34.5 L 69.621094 35.476562 Z M 65.164062 35.476562" clip-rule="nonzero"></path></clipPath><clipPath id="9265bb3ee1"><path d="M 90.410156 2.476562 L 96.9375 2.476562 L 96.9375 9 L 90.410156 9 Z M 90.410156 2.476562" clip-rule="nonzero"></path></clipPath><clipPath id="b53f97f842"><path d="M 90.4375 5.855469 C 90.375 4.011719 91.804688 2.527344 93.621094 2.5 C 95.347656 2.476562 96.824219 3.84375 96.910156 5.566406 C 97 7.304688 95.773438 8.820312 93.96875 8.96875 C 92.097656 9.125 90.496094 7.730469 90.4375 5.855469" clip-rule="nonzero"></path></clipPath><clipPath id="2af4e52a04"><path d="M 91.398438 12.246094 L 95.859375 12.246094 L 95.859375 35.476562 L 91.398438 35.476562 Z M 91.398438 12.246094" clip-rule="nonzero"></path></clipPath><clipPath id="ad6f8fafe5"><path d="M 98.253906 3.882812 L 112.484375 3.882812 L 112.484375 35.5 L 98.253906 35.5 Z M 98.253906 3.882812" clip-rule="nonzero"></path></clipPath><clipPath id="61fda1d1e8"><path d="M 98.253906 15.871094 L 98.253906 12.246094 L 101.886719 12.246094 C 102.398438 12.246094 102.8125 11.832031 102.8125 11.320312 L 102.8125 8.714844 C 102.8125 6.253906 104.574219 3.882812 107.6875 3.882812 L 112.429688 3.882812 L 112.429688 7.601562 L 109.035156 7.601562 C 108.015625 7.601562 107.269531 8.019531 107.269531 9.367188 L 107.269531 11.320312 C 107.269531 11.832031 107.683594 12.246094 108.195312 12.246094 L 112.429688 12.246094 L 112.429688 15.871094 L 108.195312 15.871094 C 107.683594 15.871094 107.269531 16.285156 107.269531 16.792969 L 107.269531 35.476562 L 102.8125 35.476562 L 102.8125 16.792969 C 102.8125 16.285156 102.398438 15.867188 101.886719 15.867188 Z M 98.253906 15.871094" clip-rule="nonzero"></path></clipPath><clipPath id="44be1df03b"><path d="M 113.855469 12.246094 L 137.71875 12.246094 L 137.71875 42.585938 L 113.855469 42.585938 Z M 113.855469 12.246094" clip-rule="nonzero"></path></clipPath><clipPath id="55716fc295"><path d="M 133.089844 12.246094 L 126.742188 25.203125 C 126.40625 25.894531 125.421875 25.894531 125.082031 25.203125 L 118.734375 12.246094 L 113.855469 12.246094 L 121.753906 27.578125 C 123.148438 30.273438 123.101562 32.269531 121.707031 34.871094 L 117.625 42.5 L 122.128906 42.5 L 137.644531 12.246094 Z M 133.089844 12.246094" clip-rule="nonzero"></path></clipPath></defs><g clip-path="url(#3bf4baeecc)"><g clip-path="url(#3090d6477a)"><path fill="#ffffff" d="M 19.355469 2.953125 L 40.878906 2.953125 L 40.878906 35.492188 L 19.355469 35.492188 Z M 19.355469 2.953125" fill-opacity="1" fill-rule="nonzero"></path></g></g><g clip-path="url(#bec95a5cf4)"><g clip-path="url(#93d7d40c60)"><path fill="#0055a2" d="M 43.109375 11.78125 L 62.621094 11.78125 L 62.621094 36.019531 L 43.109375 36.019531 Z M 43.109375 11.78125" fill-opacity="1" fill-rule="nonzero"></path></g></g><g clip-path="url(#77011873e3)"><g clip-path="url(#c43bc64fbe)"><path fill="#ffffff" d="M 65.164062 2.953125 L 88.625 2.953125 L 88.625 36.023438 L 65.164062 36.023438 Z M 65.164062 2.953125" fill-opacity="1" fill-rule="nonzero"></path></g></g><g clip-path="url(#9265bb3ee1)"><g clip-path="url(#b53f97f842)"><path fill="#ffffff" d="M 90.433594 2.5 L 96.914062 2.5 L 96.914062 8.980469 L 90.433594 8.980469 Z M 90.433594 2.5" fill-opacity="1" fill-rule="nonzero"></path></g></g><g clip-path="url(#2af4e52a04)"><path fill="#ffffff" d="M 91.398438 12.246094 L 95.859375 12.246094 L 95.859375 35.472656 L 91.398438 35.472656 Z M 91.398438 12.246094" fill-opacity="1" fill-rule="nonzero"></path></g><g clip-path="url(#ad6f8fafe5)"><g clip-path="url(#61fda1d1e8)"><path fill="#ffffff" d="M 98.253906 3.882812 L 112.429688 3.882812 L 112.429688 35.5 L 98.253906 35.5 Z M 98.253906 3.882812" fill-opacity="1" fill-rule="nonzero"></path></g></g><g clip-path="url(#44be1df03b)"><g clip-path="url(#55716fc295)"><path fill="#ffffff" d="M 113.855469 12.246094 L 137.632812 12.246094 L 137.632812 42.5 L 113.855469 42.5 Z M 113.855469 12.246094" fill-opacity="1" fill-rule="nonzero"></path></g></g></svg>