<?xml version="1.0" encoding="UTF-8"?><svg id="Layer_1" xmlns="http://www.w3.org/2000/svg" viewBox="0 0 1920 1080"><defs><style>.cls-1,.cls-2{stroke-width:0px;}.cls-2{fill:#0055a2;}</style></defs><path class="cls-1" d="m266.59,692.13v-381.3h117.81c81.71,0,116.02,43.03,116.02,92.06,0,26.15-10.35,44.66-28.33,57.74-5.45,3.81-9.26,8.17-9.26,13.08s3.81,9.26,9.26,12.53c32.14,18.52,46.84,48.48,46.84,87.15,0,65.91-41.4,118.75-142.17,118.75h-110.18Zm127.07-239.13c29.96,0,50.12-19.07,50.12-46.85s-20.16-47.39-50.12-47.39h-59.58c-5.98,0-10.83,4.85-10.83,10.83v72.57c0,5.98,4.85,10.83,10.83,10.83h59.58Zm-6.53,191.19c44.12,0,74.08-28.87,74.08-70.81s-29.96-72.45-74.08-72.45h-53.05c-5.98,0-10.83,4.85-10.83,10.83v121.59c0,5.98,4.85,10.83,10.83,10.83h53.05Z"/><path class="cls-2" d="m773.84,521.64c0,37.04-16.89,61.01-44.12,84.43-13.07,10.89-23.97,20.15-23.97,33.77,0,20.7,24.51,26.69,24.51,43.03,0,9.8-8.72,15.79-32.68,15.79-76.26,0-152.52-60.46-152.52-156.88,0-80.62,54.47-127.46,119.29-127.46s109.49,46.84,109.49,107.31Zm-45.23,1.38c0-39.45-34.19-71.47-74.95-65.19-28.11,4.33-50.65,26.86-54.98,54.97-6.28,40.76,22.06,43.12,65.18,43.12,39.8,0,64.75,2.56,64.74-32.9Z"/><path class="cls-1" d="m803.62,692.13v-381.3h52.29v118.75c0,9.26,3.81,13.07,9.26,13.07,14.71,0,31.59-28.33,83.89-28.33,75.17,0,129.64,58.83,129.64,142.17s-54.47,142.17-129.64,142.17c-52.84,0-70.27-29.41-83.89-29.41-4.9,0-9.26,3.81-9.26,11.44v11.44h-52.29Zm142.17-38.13c48.48,0,78.44-40.31,78.44-97.5s-29.96-97.5-78.44-97.5c-53.38,0-92.6,50.11-92.6,97.5s39.22,97.5,92.6,97.5Z"/><path class="cls-1" d="m1099.93,344.84c-.71-21.58,16.05-38.98,37.36-39.31,20.21-.31,37.52,15.73,38.54,35.91,1.04,20.42-13.35,38.16-34.47,39.92-21.96,1.83-40.7-14.5-41.43-36.52Z"/><path class="cls-1" d="m1191.58,462.26v-42.49h42.6c5.98,0,10.83-4.85,10.83-10.83v-30.56c0-28.87,20.7-56.65,57.2-56.65h55.56v43.58h-39.76c-11.98,0-20.7,4.9-20.7,20.7v22.94c0,5.98,4.85,10.83,10.83,10.83h49.63v42.49h-49.63c-5.98,0-10.83,4.85-10.83,10.83v219.03h-52.29v-219.03c0-5.98-4.85-10.83-10.83-10.83h-42.6Z"/><rect class="cls-1" x="1111.2" y="419.78" width="52.29" height="272.36"/><path class="cls-1" d="m1600.03,419.78l-74.43,151.93c-3.96,8.09-15.5,8.09-19.46,0l-74.43-151.93h-57.2l92.6,179.76c16.34,31.59,15.8,55.02-.54,85.52l-47.86,89.42h52.79l181.91-354.7h-53.38Z"/></svg>